<svg width="194" height="287" viewBox="0 0 194 287" fill="none" xmlns="http://www.w3.org/2000/svg">
<path d="M190.838 0.122011C191.662 0.0329584 192.402 0.628429 192.491 1.45206L193.942 14.8738C194.031 15.6974 193.436 16.4373 192.612 16.5264C191.788 16.6154 191.049 16.02 190.96 15.1963L189.669 3.26588L177.739 4.55591C176.915 4.64496 176.176 4.0495 176.086 3.22586C175.997 2.40223 176.593 1.66235 177.417 1.5733L190.838 0.122011ZM123.369 283.16C124.172 283.365 124.657 284.181 124.452 284.984C124.247 285.787 123.431 286.271 122.628 286.067L123.369 283.16ZM192.168 2.5538C173.633 25.5828 142.829 50.4332 111.554 75.7297C80.1929 101.096 48.3275 126.933 27.346 152.066C6.30599 177.269 -3.2957 201.152 8.49997 222.936C14.4486 233.922 25.9317 244.599 44.612 254.736C63.284 264.868 89.0395 274.403 123.369 283.16L122.628 286.067C88.1658 277.276 62.1508 267.666 43.1812 257.372C24.2199 247.083 12.1901 236.052 5.86188 224.365C-6.89616 200.803 3.89224 175.479 25.0431 150.144C46.2524 124.738 78.3786 98.7047 109.667 73.3971C141.042 48.0201 171.544 23.394 189.831 0.672838L192.168 2.5538Z" fill="url(#paint0_linear_2006_16885)"/>
<defs>
<linearGradient id="paint0_linear_2006_16885" x1="181.892" y1="36.8532" x2="48.7122" y2="259.115" gradientUnits="userSpaceOnUse">
<stop stop-color="#DBA6F4"/>
<stop offset="1" stop-color="#A981FE"/>
</linearGradient>
</defs>
</svg>
