<svg width="651" height="436" viewBox="0 0 651 436" fill="none" xmlns="http://www.w3.org/2000/svg">
<path d="M380.437 249.85L380.536 248.354L380.437 249.85ZM7.69012 434.293C8.09378 435.016 9.00746 435.276 9.73089 434.872L21.5199 428.294C22.2433 427.89 22.5025 426.977 22.0988 426.253C21.6952 425.53 20.7815 425.27 20.0581 425.674L9.57899 431.521L3.73186 421.042C3.32819 420.319 2.41451 420.06 1.69108 420.463C0.96765 420.867 0.708426 421.781 1.11209 422.504L7.69012 434.293ZM647.507 0.413684C644.095 34.7544 628.455 100.173 588.092 155.277C547.786 210.302 482.828 255.066 380.536 248.354L380.339 251.347C483.796 258.136 549.689 212.782 590.512 157.05C631.277 101.397 647.043 35.4207 650.493 0.71034L647.507 0.413684ZM380.536 248.354C298.444 242.967 217.643 245.415 151.143 271.081C84.5362 296.789 32.3502 345.764 7.55695 433.153L10.443 433.971C34.9688 347.526 86.4607 299.261 152.223 273.88C218.091 248.458 298.349 245.967 380.339 251.347L380.536 248.354Z" fill="url(#paint0_linear_784_62460)"/>
<defs>
<linearGradient id="paint0_linear_784_62460" x1="573.011" y1="217.062" x2="9" y2="217.062" gradientUnits="userSpaceOnUse">
<stop stop-color="#BFF0FF"/>
<stop offset="1" stop-color="#82B4FF"/>
</linearGradient>
</defs>
</svg>
