<svg width="430" height="423" viewBox="0 0 430 423" fill="none" xmlns="http://www.w3.org/2000/svg">
<path d="M422.684 142.477C423.031 141.732 422.732 140.78 422.016 140.35L410.344 133.341C409.628 132.911 408.766 133.165 408.418 133.91C408.071 134.654 408.37 135.606 409.086 136.036L419.461 142.267L414.43 153.048C414.083 153.792 414.382 154.744 415.098 155.174C415.814 155.604 416.677 155.35 417.024 154.605L422.684 142.477ZM260.494 34.0036C260.251 33.168 259.44 32.6543 258.682 32.8562C257.924 33.058 257.506 33.8991 257.748 34.7347L260.494 34.0036ZM259.121 34.3691C257.748 34.7347 257.748 34.7347 257.748 34.7348C257.748 34.7348 257.748 34.7349 257.748 34.735C257.748 34.7351 257.748 34.7352 257.749 34.7353C257.749 34.7356 257.749 34.736 257.749 34.7364C257.749 34.7372 257.749 34.7383 257.75 34.7396C257.751 34.7423 257.752 34.746 257.753 34.7507C257.756 34.7601 257.76 34.7736 257.765 34.7911C257.775 34.826 257.79 34.877 257.81 34.9436C257.85 35.0767 257.91 35.2723 257.989 35.5273C258.147 36.0371 258.385 36.7843 258.705 37.7435L261.41 36.8803C261.098 35.945 260.867 35.2208 260.715 34.7329C260.64 34.4889 260.584 34.3041 260.547 34.1815C260.528 34.1202 260.515 34.0745 260.506 34.0447C260.502 34.0298 260.498 34.0189 260.496 34.012C260.495 34.0086 260.495 34.0062 260.494 34.0048C260.494 34.0041 260.494 34.0036 260.494 34.0034C260.494 34.0033 260.494 34.0033 260.494 34.0033C260.494 34.0033 260.494 34.0034 260.494 34.0034C260.494 34.0034 260.494 34.0035 260.494 34.0035C260.494 34.0036 260.494 34.0036 259.121 34.3691ZM260.859 43.8019C261.519 45.5618 262.289 47.5387 263.173 49.6968L265.796 48.6141C264.926 46.4901 264.169 44.5457 263.52 42.8166L260.859 43.8019ZM265.68 55.5764C266.502 57.4316 267.392 59.3742 268.351 61.3884L270.895 60.1268C269.95 58.1431 269.073 56.2299 268.264 54.4029L265.68 55.5764ZM271.175 67.1089C272.113 68.9443 273.104 70.8221 274.15 72.7324L276.604 71.2964C275.575 69.4161 274.599 67.5674 273.676 65.7602L271.175 67.1089ZM277.28 78.2604C278.33 80.0524 279.426 81.8636 280.569 83.6863L282.919 82.0719C281.795 80.28 280.717 78.4988 279.684 76.736L277.28 78.2604ZM284.022 89.0043C285.186 90.736 286.394 92.4715 287.644 94.2043L289.869 92.4041C288.641 90.7033 287.456 88.9992 286.312 87.298L284.022 89.0043ZM291.438 99.2738C292.721 100.925 294.044 102.569 295.408 104.198L297.482 102.204C296.145 100.608 294.849 98.997 293.591 97.3776L291.438 99.2738ZM299.556 108.96C300.957 110.506 302.396 112.033 303.877 113.537L305.769 111.343C304.322 109.873 302.914 108.379 301.544 106.867L299.556 108.96ZM308.366 117.905C309.883 119.318 311.438 120.704 313.033 122.059L314.711 119.665C313.155 118.344 311.637 116.991 310.155 115.611L308.366 117.905ZM317.877 125.977C319.511 127.234 321.183 128.457 322.894 129.64L324.321 127.054C322.655 125.902 321.026 124.711 319.434 123.485L317.877 125.977ZM328.048 133.012C329.778 134.079 331.545 135.106 333.348 136.088L334.493 133.329C332.739 132.374 331.021 131.375 329.337 130.336L328.048 133.012ZM338.791 138.858C340.613 139.721 342.469 140.539 344.361 141.306L345.199 138.401C343.36 137.655 341.556 136.861 339.785 136.022L338.791 138.858ZM349.989 143.403C351.865 144.041 353.773 144.63 355.714 145.167L356.236 142.154C354.349 141.632 352.493 141.059 350.67 140.439L349.989 143.403ZM361.533 146.597C363.433 147.006 365.362 147.365 367.322 147.672L367.531 144.592C365.623 144.293 363.745 143.943 361.897 143.545L361.533 146.597ZM373.165 148.422C375.097 148.616 377.057 148.76 379.045 148.851L378.958 145.741C377.019 145.652 375.107 145.512 373.224 145.323L373.165 148.422ZM384.836 148.967C386.761 148.956 388.712 148.896 390.687 148.786L390.331 145.677C388.399 145.785 386.493 145.843 384.612 145.854L384.836 148.967ZM396.427 148.329C398.32 148.133 400.235 147.892 402.172 147.603L401.577 144.518C399.678 144.802 397.801 145.038 395.948 145.229L396.427 148.329ZM407.846 146.632C409.7 146.274 411.574 145.873 413.468 145.428L412.663 142.384C410.802 142.821 408.962 143.215 407.143 143.566L407.846 146.632ZM419.034 144.008C419.971 143.75 420.913 143.481 421.859 143.201L420.915 140.194C419.983 140.469 419.057 140.734 418.135 140.987L419.034 144.008Z" fill="url(#paint0_linear_784_72788)"/>
<path d="M108.668 416.815C107.951 416.498 107.652 415.593 107.999 414.794L113.653 401.777C114 400.978 114.862 400.588 115.578 400.906C116.295 401.224 116.594 402.129 116.247 402.927L111.221 414.498L121.599 419.1C122.315 419.417 122.614 420.322 122.267 421.121C121.921 421.92 121.059 422.31 120.342 421.992L108.668 416.815ZM241.527 3.01078C241.252 2.22759 241.635 1.30542 242.382 0.951049C243.13 0.59668 243.958 0.944308 244.233 1.7275L241.527 3.01078ZM108.823 413.94C205.659 370.127 251.641 304.292 267.09 231.129C282.57 157.822 267.449 76.9059 241.527 3.01078L244.233 1.7275C270.228 75.8324 285.565 157.417 269.898 231.609C254.201 305.946 207.433 372.611 109.769 416.799L108.823 413.94Z" fill="url(#paint1_linear_784_72788)"/>
<defs>
<linearGradient id="paint0_linear_784_72788" x1="399.605" y1="135.738" x2="243.057" y2="77.6956" gradientUnits="userSpaceOnUse">
<stop stop-color="#BFF0FF"/>
<stop offset="1" stop-color="#82B4FF"/>
</linearGradient>
<linearGradient id="paint1_linear_784_72788" x1="83.8074" y1="254.808" x2="305.94" y2="172.449" gradientUnits="userSpaceOnUse">
<stop stop-color="#BFF0FF"/>
<stop offset="1" stop-color="#82B4FF"/>
</linearGradient>
</defs>
</svg>
